# xmcd
# Track frame offsets:
# 150
# 20609
# 32443
# 48564
# 62427
# 80472
# 93740
# 103090
# 114791
# 142997
# 157652
# 172295
#
# Disc length: 2455 seconds
# Revision: 0
# Processed by: cddbd v1.5.2PL0 Copyright (c) Steve Scherf et al.
# Submitted via: VisiTrax 2.11.2.271 - For more info visit www.synapsa.com
#
DISCID=9109950c
DTITLE=Edmondson, Chris - Collecting Cars
DYEAR=2012
DGENRE=Country
TTITLE0=Edmondson, Chris - Coffee
TTITLE1=Edmondson, Chris - Marry Me
TTITLE2=Edmondson, Chris - Football Star
TTITLE3=Edmondson, Chris. - Wishing Well
TTITLE4=Edmondson, Chris - Collecting Cars
TTITLE5=Edmondson, Chris - Roll Home
TTITLE6=Edmondson, Chris - Tin Can
TTITLE7=Edmondson, Chris - Apology, The
TTITLE8=Edmondson, Chris - Ballad of the 5th Tree Cafe
TTITLE9=Edmondson, Chris - Lightning Tree
TTITLE10=Edmondson, Chris - Way Out of Here, The
TTITLE11=Edmondson, Chris - Quiet Now
EXTD=
EXTT0=
EXTT1=
EXTT2=
EXTT3=
EXTT4=
EXTT5=
EXTT6=
EXTT7=
EXTT8=
EXTT9=
EXTT10=
EXTT11=
PLAYORDER=
